<svg xmlns="http://www.w3.org/2000/svg" width="512" height="512" style="overflow: visible;" viewBox="0 0 512 512" data-svgdocument="" id="_6KrW5zEB_7pz7xxwwK5TK" class="fl-svgdocument" x="0" y="0" xmlns:xlink="http://www.w3.org/1999/xlink"><defs id="_iS3IyZSR5gP3Gt2Deabgt" transform="matrix(0.9982692280220733, 0, 0, 0.9982692280220733, 0.44307789838177325, 0.8030707600726529)" data-uid="o_ej95c1dgj_5"></defs><path id="_unUrFSP6HL5KpoiVksuSU" stroke="none" fill="#291d29" transform="matrix(2.877633514130851, 0, 0, 2.877633514130851, 1.8818946554471165, 1.8818946554471023)" stroke-width="1" data-type="circle" data-cx="88.385" data-cy="88.385" data-r="88.385" d="M88.385,88.385m-88.385,0a88.385,88.385 0 1, 0 176.77,0a88.385,88.385 0 1, 0 -176.77,0" data-uid="o_ej95c1dgj_6"></path><path id="_6i-6enoUYwz8TS8vkLFBs" d="M14,48.1c8.4-2.2,15.1-0.3,21.1,3c10.6-7.1,21.8-12.5,36.8-3.2c3.9,1.1,8.3,2.9,14,5.4C86,52.2,86,51.1,86,50   c0-19.9-16.2-36-36-36C30.8,14,15,29.1,14,48.1z" stroke="none" fill="#ed9842" transform="matrix(6.673578819606874, 0, 0, 6.673578819606874, -75.89383863053811, -79.20679519089839)" stroke-width="1" data-uid="o_ej95c1dgj_7"></path><g id="_wSnACT4LBECsS7E1L8SKH" transform="matrix(1.994915348707453, 0, 0, 1.994915348707453, -254.47678189049196, -93.8740420825106)" data-uid="o_ej95c1dgj_8"><path id="_eznw7Cw7cMCNA-F0EI6CZ" d="M38.8,54.6c-1.2-0.8-2.4-1.6-3.6-2.3c-1.4,0.9-2.7,1.9-4.1,2.8c-4.6,3.3-9.4,6.6-14.3,8.7c0.1,0.3,0.2,0.5,0.3,0.8   c5.7-2.6,10.6-4.9,15-6.9C34.5,56.5,36.7,55.5,38.8,54.6z" stroke="none" fill="#edc242" transform="matrix(3.345294237136841, 0, 0, 3.345294237136841, 87.81723022460938, 9.12003231048584)" stroke-width="1" data-uid="o_ej95c1dgj_9"></path><path id="_D_7xSnf2xSyArtZ-DPo76" d="M37.7,69.7c-5.7-3.4-11.9-5.7-20-3.8c1.4,2.8,3.1,5.4,5.1,7.7C28.8,74,33.5,72.2,37.7,69.7z" stroke="none" fill="#edc242" transform="matrix(3.345294237136841, 0, 0, 3.345294237136841, 88.151611328125, 9.131580352783203)" stroke-width="1" data-uid="o_ej95c1dgj_10"></path><path id="_C5AIaEK-bnhbIUYW04BIE" d="M43.7,73.7c-1.7-1.2-3.3-2.3-5.1-3.4c-4,2.5-8.5,4.4-14.3,4.4c-0.2,0-0.5,0-0.7,0c4.7,5,10.9,8.7,17.8,10.4   c3.8-2.1,7-4.4,9.6-6.5C48.6,77.1,46.1,75.4,43.7,73.7z" stroke="none" fill="#edc242" transform="matrix(3.345294237136841, 0, 0, 3.345294237136841, 87.38477325439453, 8.377907752990723)" stroke-width="1" data-uid="o_ej95c1dgj_11"></path><path id="_i43MtL_R8zxfjZmIBW1G-" d="M52.1,79c-2.6,2.1-5.5,4.3-9.1,6.3c2.3,0.4,4.6,0.7,7,0.7c6.3,0,12.2-1.6,17.4-4.5C66,81.8,64.6,82,63.3,82   C59.2,82,55.5,80.8,52.1,79z" stroke="none" fill="#edc242" transform="matrix(3.345294237136841, 0, 0, 3.345294237136841, 87.40047454833984, 8.512842178344727)" stroke-width="1" data-uid="o_ej95c1dgj_12"></path><path id="_OVMzAB7Mf-ZlXMXHxo5f3" d="M54.8,76.8c-0.6,0.5-1.2,1-1.8,1.5c5,2.5,10.4,3.7,17.2,1.5c2.7-1.8,5.1-4,7.2-6.5C66.6,66.8,62,70.7,54.8,76.8z" stroke="none" fill="#edc242" transform="matrix(3.345294237136841, 0, 0, 3.345294237136841, 87.54801940917969, 8.755255699157715)" stroke-width="1" data-uid="o_ej95c1dgj_13"></path><path id="_4XLsBrcgcO8fcbyMkKLDW" d="M78,72.6c1.9-2.3,3.4-4.8,4.7-7.5c-4.4,2.5-8.4,3.8-12,4.2C72.8,69.9,75.3,70.9,78,72.6z" stroke="none" fill="#edc242" transform="matrix(3.345294237136841, 0, 0, 3.345294237136841, 86.39094543457031, 8.263922691345215)" stroke-width="1" data-uid="o_ej95c1dgj_14"></path><path id="_EhA31RAg9rPVY0HNS1wX_" d="M34.2,51.8c-5.8-3.1-12.2-4.7-20.2-2.6c0,0.3,0,0.6,0,0.8c0,4.5,0.9,8.9,2.4,12.9c4.8-2,9.4-5.2,14.1-8.6   C31.7,53.5,32.9,52.6,34.2,51.8z" stroke="none" fill="#edc242" transform="matrix(3.345294237136841, 0, 0, 3.345294237136841, 88.84207916259766, 9.103462219238281)" stroke-width="1" data-uid="o_ej95c1dgj_15"></path><path id="_Oud1mA6h4_kBH06o2GNba" d="M36.1,51.7c1.3,0.7,2.5,1.6,3.8,2.4c13.7-6.3,20.2-8.5,28.3-7C55.4,40.7,45.5,45.4,36.1,51.7z" stroke="none" fill="#edc242" transform="matrix(3.345294237136841, 0, 0, 3.345294237136841, 88.33661651611328, 7.931582450866699)" stroke-width="1" data-uid="o_ej95c1dgj_16"></path><path id="_SOs3-_R5QBV4KD192c64x" d="M19.7,64.5c7.6-1.2,13.5,1.3,19,4.6c1.9-1.2,3.7-2.6,5.5-3.9c1.5-1.1,3-2.2,4.6-3.3C47.5,61,46.2,60,44.9,59   c-1.7-1.3-3.4-2.6-5.2-3.8c-2.2,1-4.6,2.1-7.2,3.3C28.7,60.3,24.5,62.3,19.7,64.5z" stroke="none" fill="#edc242" transform="matrix(3.345294237136841, 0, 0, 3.345294237136841, 88.32079315185547, 9.4332275390625)" stroke-width="1" data-uid="o_ej95c1dgj_17"></path><path id="_IcvOr7NCWLol5VrZZ7NeS" d="M71.4,48.8c-9.6-2.7-15.7-0.9-30.6,5.9c1.6,1.1,3.2,2.3,4.7,3.5c1.4,1.1,2.8,2.1,4.2,3.1c7.7-4.8,16.9-7.3,33.1,2.6   c0.2-0.1,0.4-0.2,0.6-0.4c0.4-1.1,0.8-2.2,1.2-3.4C79.9,55.1,75.5,51.4,71.4,48.8z" stroke="none" fill="#edc242" transform="matrix(3.345294237136841, 0, 0, 3.345294237136841, 87.8153305053711, 7.932344436645508)" stroke-width="1" data-uid="o_ej95c1dgj_18"></path><path id="_zDBCz49DzDN_QY8MFvsTP" d="M84.9,59c0.4-1.5,0.7-3.1,0.9-4.7c-4.3-1.9-7.8-3.4-10.9-4.4C78,52.3,81.4,55.3,84.9,59z" stroke="none" fill="#edc242" transform="matrix(3.345294237136841, 0, 0, 3.345294237136841, 88.83403015136719, 7.557699680328369)" stroke-width="1" data-uid="o_ej95c1dgj_19"></path><path id="_mhyeGbnF2WZ5xlAJZHJk5" d="M81.8,64.5C66.6,55.3,58,57.4,50.6,62C59.3,68,68.4,71.9,81.8,64.5z" stroke="none" fill="#edc242" transform="matrix(3.345294237136841, 0, 0, 3.345294237136841, 88.2510757446289, 7.758813381195068)" stroke-width="1" data-uid="o_ej95c1dgj_20"></path><path id="_-TZo9jMdUzwr_m7yizAQE" d="M49.7,62.5c-1.7,1.1-3.3,2.3-4.9,3.5c-1.7,1.3-3.4,2.5-5.2,3.7c1.6,1,3.1,2.1,4.7,3.2c2.6,1.8,5.1,3.5,7.7,5   c0.7-0.6,1.5-1.2,2.1-1.8c3.8-3.2,6.9-5.8,10.6-6.7C59.1,68.5,54.3,65.8,49.7,62.5z" stroke="none" fill="#edc242" transform="matrix(3.345294237136841, 0, 0, 3.345294237136841, 88.3365478515625, 9.42422103881836)" stroke-width="1" data-uid="o_ej95c1dgj_21"></path></g></svg>